<svg xmlns="http://www.w3.org/2000/svg" xmlns:xlink="http://www.w3.org/1999/xlink" zoomAndPan="magnify" preserveAspectRatio="xMidYMid meet" version="1.0" viewBox="406.39 209.65 389.76 397.57"><defs><clipPath id="df247e2496"><path d="M 470 229 L 782 229 L 782 567 L 470 567 Z M 470 229 " clip-rule="nonzero"/></clipPath><clipPath id="1a061d1144"><path d="M 503.074219 209.652344 L 796.15625 302.699219 L 699.476562 607.21875 L 406.394531 514.171875 Z M 503.074219 209.652344 " clip-rule="nonzero"/></clipPath><clipPath id="ad6852db16"><path d="M 503.074219 209.652344 L 796.15625 302.699219 L 699.476562 607.21875 L 406.394531 514.171875 Z M 503.074219 209.652344 " clip-rule="nonzero"/></clipPath></defs><g clip-path="url(#df247e2496)"><g clip-path="url(#1a061d1144)"><g clip-path="url(#ad6852db16)"><path fill="#fbf5df" d="M 513.320312 242.863281 C 523.042969 235.445312 534.566406 233.222656 545.777344 230.886719 C 553.855469 229.207031 562.203125 229.742188 570.574219 231.972656 C 583.734375 235.484375 593.992188 242.851562 601.664062 253.542969 C 606.332031 260.042969 609.917969 267.492188 612.960938 274.9375 C 615.667969 281.5625 617.253906 288.699219 618.800781 295.726562 C 621.148438 306.402344 621.839844 317.257812 621.105469 328.1875 C 620.386719 338.902344 619.273438 349.554688 616.328125 359.933594 C 616.199219 360.386719 616.417969 360.933594 616.472656 361.4375 C 617.125 361.082031 618.109375 360.890625 618.375 360.34375 C 622.097656 352.746094 627.621094 346.480469 632.964844 340.046875 C 638.53125 333.347656 644.789062 327.414062 652.136719 322.789062 C 658.8125 318.585938 665.65625 314.605469 672.675781 311.007812 C 682.46875 305.992188 692.277344 300.871094 702.480469 296.816406 C 712.917969 292.667969 723.988281 290.886719 735.359375 292.03125 C 752.84375 293.789062 767.71875 300.15625 776.160156 316.574219 C 781.0625 326.113281 782.195312 336.570312 780.257812 347.164062 C 779.171875 353.109375 778.121094 359.160156 776.082031 364.8125 C 772.613281 374.433594 767.59375 383.328125 761.933594 391.90625 C 753.511719 404.664062 743.191406 415.761719 732.925781 426.976562 C 724.410156 436.28125 716.550781 446.1875 708.097656 455.558594 C 702.894531 461.324219 697.171875 466.628906 691.601562 472.054688 C 686.253906 477.261719 680.945312 482.515625 675.367188 487.46875 C 663.472656 498.027344 651.4375 508.429688 639.417969 518.851562 C 624.003906 532.21875 608.652344 545.65625 593.046875 558.796875 C 589.355469 561.90625 584.964844 564.371094 580.554688 566.382812 C 576.769531 568.109375 573.789062 565.824219 572.222656 561.808594 C 570.890625 558.386719 568.929688 555.203125 567.195312 551.941406 C 560.421875 539.203125 553.1875 526.683594 546.988281 513.667969 C 542.546875 504.347656 539.285156 494.4375 535.855469 484.664062 C 532.941406 476.363281 528.15625 469.171875 523.414062 461.925781 C 519.3125 455.664062 515.125 449.457031 510.898438 443.28125 C 501.648438 429.773438 493.285156 415.746094 486.175781 401 C 480.746094 389.734375 476.96875 377.898438 474.0625 365.726562 C 470.644531 351.410156 470.015625 336.910156 470.722656 322.351562 C 471.003906 316.558594 472.59375 310.808594 473.796875 305.085938 C 474.691406 300.84375 475.5 296.5 477.089844 292.5 C 482.03125 280.078125 488.089844 268.242188 497.527344 258.511719 C 502.632812 253.253906 507.898438 248.152344 513.320312 242.863281 M 702.667969 314.859375 C 695.695312 315.441406 688.832031 316.394531 682.882812 320.53125 C 674.320312 326.488281 665.277344 331.871094 657.328125 338.5625 C 647.726562 346.644531 638.882812 355.664062 630.027344 364.59375 C 621.976562 372.71875 617.59375 383.25 612.578125 393.285156 C 610.039062 398.367188 608.261719 403.820312 605.964844 409.027344 C 603.808594 413.917969 598.511719 415.136719 596.40625 411.132812 C 595.570312 409.539062 596.605469 406.972656 596.75 404.84375 C 596.800781 404.132812 596.730469 403.414062 596.710938 402.699219 C 596.078125 403.085938 595.308594 403.355469 594.832031 403.886719 C 592.769531 406.199219 590.894531 408.6875 588.753906 410.917969 C 587.042969 412.703125 582.589844 412.929688 581.433594 411.1875 C 580.023438 409.0625 578.480469 406.855469 581.078125 404.082031 C 585.308594 399.5625 589.191406 394.710938 593.113281 389.910156 C 594.921875 387.695312 596.679688 385.65625 596.191406 382.144531 C 594.929688 373.050781 594.15625 363.882812 593.339844 354.730469 C 592.007812 339.777344 588.488281 325.320312 583.347656 311.269531 C 580.71875 304.082031 577.617188 297.070312 574.667969 290.003906 C 568.984375 276.375 561.878906 263.675781 550.296875 254.078125 C 545.792969 250.34375 540.910156 247.140625 534.675781 247.191406 C 528.957031 247.242188 524.71875 250.800781 520.367188 253.699219 C 517.378906 255.695312 514.714844 258.496094 512.625 261.445312 C 509.285156 266.167969 506.542969 271.242188 505.898438 277.273438 C 505.421875 281.722656 503.734375 286.066406 503.445312 290.511719 C 502.632812 303.0625 503.394531 315.597656 505.640625 327.96875 C 507.949219 340.683594 510.457031 353.375 513.34375 365.96875 C 516.503906 379.742188 519.976562 393.453125 523.722656 407.078125 C 527.941406 422.429688 532.535156 437.683594 537.148438 452.925781 C 538.9375 458.832031 540.625 464.902344 543.457031 470.324219 C 546.453125 476.070312 550.59375 481.257812 554.523438 486.472656 C 561.269531 495.417969 568.042969 504.359375 575.179688 512.992188 C 580.578125 519.523438 586.570312 525.5625 592.285156 531.832031 C 593.925781 533.632812 595.390625 534.277344 597.417969 532.101562 C 599.394531 529.980469 601.808594 528.277344 603.980469 526.332031 C 612.550781 518.644531 621.097656 510.933594 629.65625 503.238281 C 637.140625 496.515625 644.558594 489.714844 652.132812 483.097656 C 660.585938 475.71875 669.265625 468.601562 677.699219 461.199219 C 688.453125 451.757812 698.769531 441.792969 709.800781 432.695312 C 725.523438 419.738281 735.144531 402.78125 742.691406 384.4375 C 745.238281 378.253906 746.667969 371.566406 748.167969 365.007812 C 749.777344 357.964844 750.140625 350.855469 748.257812 343.679688 C 744.65625 329.933594 736.324219 320.292969 722.828125 316.242188 C 716.65625 314.386719 709.710938 315.085938 702.667969 314.859375 M 607.433594 351.023438 C 608.351562 342.839844 609.996094 334.65625 609.988281 326.472656 C 609.976562 317.105469 609.089844 307.640625 607.515625 298.398438 C 604.867188 282.84375 599.429688 268.316406 588.699219 256.253906 C 580.492188 247.03125 570.292969 242.003906 557.921875 241.546875 C 556.671875 241.5 555.402344 241.847656 554.144531 242.015625 C 555.097656 242.832031 556.050781 243.652344 557 244.472656 C 557.25 244.6875 557.476562 244.941406 557.738281 245.136719 C 566.453125 251.664062 572.660156 260.386719 577.742188 269.726562 C 582.671875 278.785156 586.59375 288.40625 590.75 297.875 C 596.953125 312.019531 600.339844 326.996094 603.035156 342.121094 C 603.964844 347.332031 604.15625 352.679688 604.769531 357.953125 C 604.839844 358.53125 605.5 359.042969 605.886719 359.585938 C 606.246094 359.011719 606.832031 358.472656 606.929688 357.859375 C 607.269531 355.746094 607.4375 353.605469 607.433594 351.023438 M 492.144531 288.765625 C 491.109375 290.042969 489.597656 291.164062 489.132812 292.621094 C 487.632812 297.3125 486.484375 302.125 485.265625 306.90625 C 484.550781 309.71875 483.589844 312.539062 483.378906 315.402344 C 482.699219 324.609375 481.996094 333.761719 482.644531 343.09375 C 483.917969 361.421875 488.78125 378.667969 496.410156 395.175781 C 500.191406 403.355469 504.855469 411.136719 509.257812 419.019531 C 511.707031 423.398438 514.414062 427.632812 517.070312 431.890625 C 517.488281 432.558594 518.265625 433.003906 518.875 433.554688 C 518.867188 432.695312 519.074219 431.765625 518.816406 430.984375 C 517.222656 426.109375 515.242188 421.34375 513.921875 416.398438 C 511.011719 405.46875 508.3125 394.476562 505.722656 383.464844 C 502.167969 368.355469 498.289062 353.292969 495.484375 338.035156 C 492.507812 321.867188 489.632812 305.550781 492.144531 288.765625 M 728.015625 306.308594 C 732.964844 306.90625 736.988281 309.503906 740.863281 312.347656 C 751.964844 320.492188 758.109375 331.785156 760.523438 345.039062 C 762.238281 354.453125 761.359375 363.859375 757.84375 372.902344 C 757.5625 373.625 757.785156 374.539062 757.773438 375.363281 C 758.476562 374.738281 759.535156 374.25 759.824219 373.472656 C 762.328125 366.71875 764.996094 360 766.996094 353.089844 C 768.28125 348.648438 768.914062 343.921875 769.160156 339.289062 C 770.039062 322.570312 760.601562 309.960938 744.550781 305.640625 C 739.238281 304.210938 733.589844 303.976562 728.074219 303.359375 C 726.5 303.183594 724.855469 303.59375 723.246094 303.734375 C 724.609375 304.519531 725.96875 305.304688 728.015625 306.308594 M 564.335938 517.667969 C 563.832031 517.066406 563.398438 516.378906 562.808594 515.875 C 562.015625 515.199219 561.101562 514.660156 560.238281 514.066406 C 560.484375 514.941406 560.566406 515.910156 560.996094 516.683594 C 565.988281 525.679688 570.992188 534.667969 576.136719 543.582031 C 576.574219 544.335938 578.140625 545.039062 578.96875 544.84375 C 580.550781 544.476562 582.144531 543.648438 583.390625 542.601562 C 583.941406 542.140625 584.136719 540.269531 583.679688 539.738281 C 577.394531 532.460938 570.964844 525.304688 564.335938 517.667969 Z M 564.335938 517.667969 " fill-opacity="1" fill-rule="nonzero"/></g></g></g></svg>