<svg xmlns="http://www.w3.org/2000/svg" xmlns:xlink="http://www.w3.org/1999/xlink" zoomAndPan="magnify" preserveAspectRatio="xMidYMid meet" version="1.0" viewBox="94 45.03 408.3 39.02"><defs><clipPath id="fc6b9b8b7e"><path d="M 94 45.027344 L 253 45.027344 L 253 80 L 94 80 Z M 94 45.027344 " clip-rule="nonzero"/></clipPath></defs><g clip-path="url(#fc6b9b8b7e)"><path fill="#333333" d="M 98.339844 72.953125 C 106.570312 64.394531 116.234375 56.855469 127.570312 52.945312 C 136.757812 49.769531 146.582031 49.167969 156.121094 50.546875 C 166.117188 51.992188 175.773438 55.222656 185.1875 58.800781 C 195.171875 62.605469 204.96875 66.867188 214.988281 70.570312 C 225.105469 74.304688 235.488281 77.484375 246.195312 78.953125 C 247.640625 79.152344 249.085938 79.332031 250.53125 79.472656 C 251.640625 79.578125 252.585938 78.453125 252.585938 77.417969 C 252.585938 76.21875 251.640625 75.472656 250.53125 75.367188 C 239.714844 74.304688 229.179688 71.300781 218.972656 67.664062 C 208.789062 64.03125 198.867188 59.738281 188.800781 55.8125 C 179.230469 52.09375 169.453125 48.652344 159.308594 46.917969 C 149.398438 45.234375 139.230469 45.257812 129.507812 48.027344 C 117.992188 51.3125 107.867188 58.085938 99.246094 66.257812 C 97.945312 67.488281 96.683594 68.753906 95.433594 70.050781 C 93.609375 71.957031 96.511719 74.863281 98.339844 72.953125 Z M 98.339844 72.953125 " fill-opacity="1" fill-rule="nonzero"/></g><path fill="#333333" d="M 499.742188 69.132812 C 474.832031 74.839844 449.523438 67.285156 425.421875 61.332031 C 403.023438 55.804688 379.273438 51.320312 356.734375 58.605469 C 346.03125 62.0625 336.21875 68.046875 329.34375 77.066406 C 328.671875 77.945312 329.203125 79.363281 330.082031 79.875 C 331.144531 80.488281 332.21875 80.023438 332.890625 79.136719 C 344.890625 63.390625 366.652344 58.300781 385.5 58.882812 C 410.554688 59.664062 434.230469 69.035156 458.753906 73.15625 C 472.671875 75.496094 486.980469 76.269531 500.832031 73.089844 C 503.402344 72.5 502.3125 68.542969 499.742188 69.132812 Z M 499.742188 69.132812 " fill-opacity="1" fill-rule="nonzero"/><path fill="#333333" d="M 291.863281 77.722656 C 287.476562 74.871094 283.519531 71.414062 280.113281 67.457031 C 279.824219 67.128906 279.539062 66.71875 279.265625 66.421875 C 279.242188 66.398438 279.273438 66.308594 279.25 66.25 C 279.273438 66.300781 279.160156 66.585938 279.25 66.390625 C 279.371094 66.117188 279.144531 66.601562 279.136719 66.59375 C 279.050781 66.695312 279.042969 66.703125 279.125 66.613281 C 279.160156 66.570312 279.199219 66.53125 279.242188 66.496094 C 279.480469 66.316406 278.960938 66.660156 279.242188 66.511719 C 279.324219 66.472656 279.398438 66.421875 279.480469 66.382812 C 279.160156 66.546875 279.667969 66.332031 279.792969 66.300781 C 279.890625 66.273438 280.351562 66.183594 280.210938 66.199219 C 279.972656 66.234375 280.398438 66.183594 280.449219 66.183594 C 280.589844 66.175781 280.726562 66.175781 280.859375 66.175781 C 281.097656 66.175781 281.335938 66.183594 281.574219 66.21875 C 281.222656 66.175781 281.761719 66.265625 281.859375 66.292969 C 282.484375 66.429688 283.109375 66.601562 283.71875 66.808594 C 284.769531 67.160156 285.722656 67.613281 286.707031 68.195312 C 288.839844 69.453125 290.671875 71.175781 291.980469 73.230469 C 292.578125 74.167969 293.800781 74.542969 294.789062 73.96875 C 295.714844 73.425781 296.125 72.097656 295.527344 71.160156 C 293.917969 68.632812 291.757812 66.511719 289.210938 64.917969 C 286.828125 63.425781 283.808594 62.128906 280.957031 62.078125 C 278.339844 62.027344 275.085938 63.359375 275.144531 66.4375 C 275.175781 68.296875 276.621094 69.714844 277.773438 71.011719 C 278.816406 72.1875 279.90625 73.3125 281.039062 74.398438 C 283.734375 76.957031 286.683594 79.257812 289.792969 81.285156 C 290.722656 81.894531 292.0625 81.476562 292.601562 80.546875 C 293.1875 79.53125 292.800781 78.332031 291.863281 77.722656 Z M 291.863281 77.722656 " fill-opacity="1" fill-rule="nonzero"/><path fill="#333333" d="M 290.835938 83.742188 C 294.222656 81.722656 297.605469 79.703125 300.980469 77.679688 C 302.636719 76.6875 304.296875 75.710938 305.949219 74.707031 C 307.484375 73.773438 308.96875 72.738281 310.070312 71.300781 C 311.121094 69.921875 311.679688 68.203125 311.476562 66.464844 C 311.375 65.675781 311.15625 64.910156 310.71875 64.230469 C 309.945312 63.015625 309.035156 62.71875 307.640625 62.925781 C 304.585938 63.367188 301.585938 64.507812 298.992188 66.183594 C 296.019531 68.097656 293.488281 70.683594 291.789062 73.796875 C 290.515625 76.113281 294.066406 78.191406 295.335938 75.867188 C 298.007812 71.011719 303.113281 67.597656 308.617188 66.898438 C 308.132812 66.703125 307.648438 66.496094 307.164062 66.300781 C 307.984375 67.253906 306.992188 68.746094 306.203125 69.492188 C 304.714844 70.914062 302.710938 71.851562 300.964844 72.894531 C 296.898438 75.324219 292.824219 77.753906 288.757812 80.1875 C 286.5 81.550781 288.5625 85.105469 290.835938 83.742188 Z M 290.835938 83.742188 " fill-opacity="1" fill-rule="nonzero"/><path fill="#333333" d="M 295.125 76.648438 C 299.445312 74.273438 303.753906 71.898438 308.074219 69.527344 C 309.019531 69.007812 309.40625 67.628906 308.8125 66.71875 C 308.199219 65.765625 307.015625 65.429688 306.003906 65.980469 C 301.6875 68.351562 297.375 70.726562 293.054688 73.097656 C 292.109375 73.617188 291.722656 74.996094 292.316406 75.90625 C 292.929688 76.867188 294.113281 77.195312 295.125 76.648438 Z M 295.125 76.648438 " fill-opacity="1" fill-rule="nonzero"/><path fill="#333333" d="M 294.179688 73.074219 C 290.691406 70.4375 287.191406 67.800781 283.699219 65.167969 C 282.839844 64.515625 281.367188 65 280.890625 65.90625 C 280.316406 66.988281 280.710938 68.023438 281.632812 68.714844 C 285.121094 71.351562 288.621094 73.984375 292.109375 76.621094 C 292.972656 77.269531 294.441406 76.785156 294.917969 75.882812 C 295.492188 74.800781 295.097656 73.765625 294.179688 73.074219 Z M 294.179688 73.074219 " fill-opacity="1" fill-rule="nonzero"/><path fill="#333333" d="M 279.398438 66.191406 C 279.167969 69.476562 281.386719 72.285156 283.660156 74.398438 C 285.992188 76.554688 288.644531 78.363281 291.519531 79.710938 C 292.488281 80.160156 293.777344 80.015625 294.328125 78.972656 C 294.8125 78.058594 294.632812 76.648438 293.589844 76.164062 C 292.324219 75.570312 291.101562 74.890625 289.925781 74.125 C 288.660156 73.296875 287.996094 72.777344 286.863281 71.769531 C 286.371094 71.324219 285.894531 70.867188 285.433594 70.390625 C 285.210938 70.160156 285.007812 69.914062 284.800781 69.667969 C 284.414062 69.207031 284.898438 69.832031 284.710938 69.550781 C 284.621094 69.421875 284.523438 69.296875 284.433594 69.15625 C 284.257812 68.894531 284.09375 68.625 283.945312 68.34375 C 283.929688 68.3125 283.667969 67.761719 283.839844 68.164062 C 283.78125 68.023438 283.734375 67.875 283.683594 67.726562 C 283.636719 67.582031 283.59375 67.433594 283.5625 67.285156 C 283.542969 67.234375 283.460938 66.742188 283.496094 67.023438 C 283.535156 67.300781 283.488281 66.800781 283.488281 66.75 C 283.480469 66.5625 283.496094 66.382812 283.503906 66.191406 C 283.578125 65.117188 282.5 64.089844 281.449219 64.140625 C 280.277344 64.195312 279.480469 65.042969 279.398438 66.191406 Z M 279.398438 66.191406 " fill-opacity="1" fill-rule="nonzero"/></svg>