<svg xmlns="http://www.w3.org/2000/svg" xmlns:xlink="http://www.w3.org/1999/xlink" zoomAndPan="magnify" preserveAspectRatio="xMidYMid meet" version="1.0" viewBox="377.26 263.54 192.74 323.46"><defs><clipPath id="ce7ef256b1"><path d="M 377.257812 263.535156 L 570 263.535156 L 570 587 L 377.257812 587 Z M 377.257812 263.535156 " clip-rule="nonzero"/></clipPath></defs><g clip-path="url(#ce7ef256b1)"><path fill="#090000" d="M 489.613281 495.449219 C 489.457031 494.835938 489.226562 494.140625 489.074219 493.527344 C 488.917969 492.601562 488.84375 491.679688 488.613281 490.753906 C 488.535156 490.292969 488.304688 489.832031 488.074219 489.449219 C 487.609375 488.523438 487.148438 487.601562 486.609375 486.675781 C 486.300781 486.0625 485.992188 485.292969 485.53125 484.753906 C 485.070312 484.214844 484.605469 483.828125 484.066406 483.367188 C 483.761719 483.058594 483.375 482.675781 482.988281 482.289062 C 482.835938 482.058594 482.683594 481.90625 482.449219 481.675781 C 481.527344 480.519531 479.988281 479.675781 478.753906 478.75 C 478.214844 478.367188 477.753906 477.902344 477.136719 477.671875 C 476.214844 477.289062 475.367188 476.902344 474.441406 476.519531 C 473.824219 476.210938 473.132812 475.828125 472.441406 475.671875 C 471.746094 475.441406 470.824219 475.671875 470.050781 475.671875 C 468.433594 475.75 466.742188 475.519531 465.277344 476.210938 C 464.277344 476.671875 463.277344 477.058594 462.351562 477.519531 C 461.734375 477.828125 460.964844 477.980469 460.425781 478.441406 C 459.039062 479.519531 457.578125 480.675781 456.269531 481.90625 C 455.113281 482.984375 454.265625 484.597656 453.34375 485.90625 C 452.496094 487.0625 451.726562 488.292969 450.878906 489.523438 C 450.414062 490.21875 449.875 490.910156 449.492188 491.601562 C 449.183594 492.140625 449.03125 492.757812 448.875 493.371094 C 448.414062 494.835938 447.953125 496.296875 447.414062 497.683594 C 446.71875 499.296875 445.949219 500.914062 445.410156 502.53125 C 444.871094 504.222656 444.640625 505.992188 444.179688 507.761719 C 443.792969 509.226562 443.332031 510.765625 442.945312 512.226562 C 442.5625 513.6875 442.40625 515.074219 442.253906 516.535156 C 442.175781 517.460938 442.023438 518.382812 441.945312 519.304688 C 441.945312 519.304688 441.945312 519.304688 441.945312 519.382812 C 441.867188 519.84375 441.789062 520.230469 441.789062 520.691406 C 441.558594 522.308594 441.328125 523.925781 441.097656 525.539062 C 441.097656 525.769531 441.019531 526 441.019531 526.15625 C 440.25 524.695312 439.480469 523.230469 438.632812 521.847656 C 437.246094 519.382812 435.707031 517.074219 434.476562 514.535156 C 433.859375 513.226562 433.320312 511.996094 432.550781 510.839844 C 431.78125 509.53125 431.007812 508.148438 430.085938 506.992188 C 428.929688 505.609375 427.777344 504.070312 426.542969 502.761719 C 425.542969 501.683594 424.15625 500.835938 422.925781 499.992188 C 422.386719 499.527344 421.847656 499.144531 421.230469 498.683594 C 421.691406 499.066406 421.382812 498.757812 421.152344 498.605469 C 420.769531 498.296875 420.460938 498.066406 420.074219 497.757812 C 418.84375 496.835938 417.6875 495.679688 416.378906 494.835938 C 414.839844 493.835938 413.222656 493.0625 411.605469 492.21875 C 410.371094 491.523438 408.910156 491.140625 407.597656 490.679688 C 406.828125 490.371094 405.980469 490.0625 405.210938 489.832031 C 404.671875 489.679688 404.132812 489.679688 403.59375 489.679688 C 402.515625 489.601562 401.515625 489.523438 400.4375 489.449219 C 399.898438 489.371094 399.4375 489.371094 398.898438 489.523438 C 397.972656 489.832031 397.050781 490.140625 396.046875 490.523438 C 395.355469 490.753906 394.664062 490.910156 394.046875 491.21875 C 393.429688 491.523438 392.890625 492.21875 392.429688 492.757812 C 391.734375 493.527344 391.042969 494.21875 390.351562 494.988281 C 389.347656 496.066406 388.808594 497.683594 388.117188 498.988281 C 387.730469 499.757812 387.421875 500.527344 387.191406 501.296875 C 387.039062 501.53125 386.882812 501.761719 386.730469 501.992188 C 386.421875 502.605469 386.34375 503.300781 386.113281 503.914062 C 385.804688 504.914062 385.574219 505.917969 385.265625 506.917969 C 385.113281 507.378906 384.960938 507.917969 384.960938 508.457031 C 384.960938 510.226562 385.113281 512.074219 385.191406 513.917969 C 385.265625 515.382812 386.269531 516.691406 386.960938 518 C 387.578125 519.152344 388.195312 520.230469 388.808594 521.382812 C 389.65625 522.769531 390.351562 524.308594 391.351562 525.617188 C 393.046875 527.773438 394.738281 529.773438 396.585938 531.773438 C 397.511719 533.160156 398.511719 534.621094 399.359375 536.082031 C 400.207031 537.46875 400.976562 539.007812 401.976562 540.316406 C 403.054688 541.699219 404.132812 543.007812 405.210938 544.394531 C 406.984375 546.703125 408.753906 548.933594 410.757812 551.089844 C 411.679688 552.089844 412.527344 553.011719 413.527344 553.859375 C 414.683594 554.859375 415.917969 555.859375 417.070312 556.859375 C 418.378906 558.09375 419.691406 559.324219 421 560.554688 C 422.078125 561.554688 423.230469 562.402344 424.308594 563.324219 C 426.390625 565.019531 428.390625 566.867188 430.46875 568.636719 C 431.855469 569.789062 433.164062 570.945312 434.550781 572.097656 C 435.785156 573.097656 437.246094 573.945312 438.554688 574.867188 C 438.554688 574.867188 438.632812 574.867188 438.632812 574.945312 C 439.558594 575.945312 440.480469 577.023438 441.40625 578.023438 C 443.332031 580.023438 445.5625 581.5625 447.644531 583.410156 C 448.875 584.488281 450.109375 585.488281 451.339844 586.566406 C 452.265625 587.335938 453.417969 586.71875 453.648438 585.875 C 454.574219 584.566406 455.5 583.332031 456.34375 582.027344 C 457.191406 580.71875 457.960938 579.253906 458.734375 577.871094 C 460.195312 575.332031 461.734375 572.867188 463.121094 570.328125 C 464.585938 567.710938 465.738281 564.941406 467.125 562.324219 C 467.894531 560.863281 468.667969 559.476562 469.359375 558.015625 C 470.128906 556.476562 470.746094 554.785156 471.515625 553.242188 C 472.285156 551.78125 473.132812 550.398438 473.980469 548.933594 C 474.75 547.625 475.289062 546.242188 475.90625 544.855469 C 477.136719 542.164062 478.292969 539.46875 479.371094 536.699219 C 479.753906 535.699219 480.140625 534.699219 480.527344 533.695312 C 480.601562 533.390625 480.910156 533.082031 480.601562 533.542969 C 480.757812 533.3125 480.832031 533.003906 480.988281 532.773438 C 481.757812 531.3125 482.683594 529.847656 483.296875 528.308594 C 484.605469 525.15625 485.839844 521.921875 486.917969 518.691406 C 487.457031 517.230469 487.917969 515.691406 488.378906 514.226562 C 488.84375 512.765625 489.074219 511.226562 489.457031 509.765625 C 490.074219 506.839844 490.460938 503.683594 490.230469 500.683594 C 490.074219 498.605469 490.074219 496.988281 489.613281 495.449219 Z M 483.761719 512.378906 C 483.761719 512.457031 483.761719 512.457031 483.761719 512.457031 C 483.605469 512.765625 483.527344 512.996094 483.375 513.304688 C 482.066406 516.304688 480.601562 519.230469 479.140625 522.078125 C 477.90625 524.539062 476.828125 527.078125 475.675781 529.542969 C 475.058594 530.773438 474.519531 532.003906 473.824219 533.160156 C 473.054688 534.46875 472.132812 535.773438 471.4375 537.160156 C 470.667969 538.699219 470.050781 540.390625 469.359375 542.007812 C 468.742188 543.394531 468.050781 544.703125 467.433594 546.085938 C 466.277344 548.472656 465.125 550.933594 463.738281 553.167969 C 462.96875 554.398438 462.121094 555.628906 461.425781 556.9375 C 460.582031 558.476562 459.886719 560.09375 459.117188 561.632812 C 457.730469 564.25 456.191406 566.789062 454.804688 569.40625 C 453.496094 571.867188 452.1875 574.253906 450.648438 576.640625 C 450.03125 577.5625 449.414062 578.484375 448.875 579.484375 C 447.027344 577.945312 445.257812 576.40625 443.40625 574.867188 C 442.328125 574.023438 441.328125 573.097656 440.25 572.328125 C 438.171875 570.019531 436.015625 567.710938 433.859375 565.480469 C 432.011719 563.632812 430.394531 561.554688 428.546875 559.785156 C 426.160156 557.554688 423.847656 555.246094 421.613281 552.78125 C 419.765625 550.703125 417.917969 548.625 415.917969 546.703125 C 413.761719 544.625 411.757812 542.316406 409.679688 540.160156 C 407.675781 538.160156 405.519531 536.238281 403.441406 534.3125 C 401.902344 532.851562 400.359375 531.386719 398.898438 529.925781 C 397.742188 528.234375 396.585938 526.464844 395.507812 524.695312 C 393.890625 521.847656 392.429688 518.921875 391.121094 515.996094 C 391.042969 515.765625 390.964844 515.613281 390.8125 515.382812 C 391.121094 516.074219 390.8125 515.226562 390.734375 515.074219 C 390.425781 514.074219 390.117188 513.148438 389.8125 512.148438 C 389.65625 511.765625 389.578125 511.378906 389.425781 510.917969 C 389.425781 510.839844 389.425781 510.6875 389.347656 510.609375 C 389.273438 509.839844 389.195312 509.070312 389.039062 508.300781 C 388.964844 507.761719 388.886719 507.300781 388.886719 506.761719 C 388.886719 506.609375 388.886719 505.992188 388.808594 505.761719 C 388.964844 505.378906 389.039062 504.914062 389.117188 504.53125 C 389.273438 503.839844 389.503906 503.144531 389.65625 502.375 C 389.734375 502.300781 389.8125 502.144531 389.886719 502.070312 C 390.503906 501.222656 391.121094 500.375 391.660156 499.527344 C 391.890625 499.222656 392.042969 498.914062 392.273438 498.683594 C 392.429688 498.605469 392.660156 498.453125 392.8125 498.375 C 393.277344 498.144531 393.738281 497.988281 394.125 497.757812 C 395.046875 497.375 395.894531 496.914062 396.816406 496.527344 C 396.894531 496.527344 397.050781 496.449219 397.203125 496.375 C 398.128906 496.375 399.050781 496.375 400.050781 496.375 C 400.898438 496.375 401.746094 496.449219 402.59375 496.375 C 402.824219 496.527344 403.210938 496.527344 403.441406 496.605469 C 404.441406 496.914062 405.441406 497.21875 406.445312 497.527344 C 406.828125 497.605469 407.214844 497.757812 407.523438 497.835938 C 407.597656 497.835938 407.675781 497.914062 407.832031 497.914062 C 408.371094 498.21875 409.0625 498.527344 409.601562 498.757812 C 410.527344 499.222656 411.371094 499.683594 412.296875 500.144531 C 413.453125 500.761719 414.453125 501.605469 415.453125 502.375 C 416.457031 503.144531 417.457031 503.914062 418.535156 504.609375 C 419.382812 505.222656 420.230469 505.839844 421 506.378906 C 421.308594 506.609375 421.613281 506.839844 421.921875 507.070312 C 421.921875 507.070312 421.921875 507.070312 422 507.070312 C 422.078125 507.300781 422.460938 507.53125 422.617188 507.761719 C 422.925781 508.148438 423.308594 508.53125 423.617188 508.917969 C 424.234375 509.609375 424.847656 510.300781 425.542969 510.996094 C 426.464844 512.074219 427.3125 513.226562 428.160156 514.304688 C 428.390625 514.535156 428.546875 514.84375 428.777344 515.074219 C 428.777344 515.074219 428.777344 515.152344 428.851562 515.152344 C 429.316406 515.921875 429.855469 516.691406 430.394531 517.460938 C 431.164062 518.613281 432.011719 519.691406 432.933594 520.769531 C 433.859375 521.769531 434.707031 522.847656 435.628906 523.925781 C 436.246094 524.695312 436.9375 525.539062 437.554688 526.308594 C 437.710938 526.539062 437.941406 526.769531 438.09375 527.003906 C 438.09375 527.003906 438.171875 527.078125 438.171875 527.15625 C 438.863281 528.308594 439.558594 529.386719 440.328125 530.542969 C 440.40625 530.617188 440.40625 530.773438 440.480469 530.851562 C 440.480469 531.15625 440.636719 531.386719 440.867188 531.542969 C 441.328125 532.15625 442.097656 532.15625 442.636719 531.695312 C 442.867188 531.542969 443.023438 531.3125 443.175781 531.003906 C 444.101562 528.078125 445.101562 525.15625 446.027344 522.230469 C 446.875 519.691406 447.179688 516.921875 448.183594 514.382812 C 448.796875 512.84375 449.414062 511.304688 449.953125 509.765625 C 450.492188 508.226562 450.953125 506.609375 451.417969 504.992188 C 451.417969 504.914062 451.492188 504.761719 451.570312 504.609375 C 451.492188 504.761719 451.417969 504.761719 451.570312 504.609375 C 451.570312 504.53125 451.648438 504.53125 451.648438 504.453125 C 451.648438 504.53125 451.648438 504.53125 451.648438 504.609375 C 451.648438 504.53125 451.648438 504.53125 451.648438 504.453125 C 451.726562 504.378906 451.726562 504.222656 451.800781 504.144531 C 452.1875 503.222656 452.648438 502.300781 453.035156 501.375 C 453.574219 500.144531 454.113281 498.914062 454.574219 497.605469 C 454.882812 496.605469 455.265625 495.605469 455.574219 494.679688 C 455.652344 494.527344 455.730469 494.296875 455.804688 494.140625 C 455.574219 494.757812 455.882812 494.140625 456.039062 493.910156 C 456.960938 492.527344 457.808594 491.140625 458.734375 489.753906 C 459.65625 488.371094 460.65625 486.984375 461.582031 485.601562 C 461.660156 485.523438 461.660156 485.445312 461.734375 485.367188 C 461.734375 485.292969 461.8125 485.292969 461.8125 485.214844 C 461.964844 484.984375 461.890625 485.214844 461.734375 485.367188 C 461.890625 485.292969 462.121094 485.0625 462.199219 484.90625 C 462.96875 484.214844 463.738281 483.597656 464.507812 482.90625 C 464.816406 482.597656 465.125 482.367188 465.507812 482.058594 C 465.507812 482.058594 465.507812 482.058594 465.585938 481.984375 C 466.203125 481.828125 466.972656 481.367188 467.511719 481.136719 C 468.359375 480.828125 469.28125 480.519531 470.050781 480.136719 C 470.050781 480.136719 470.128906 480.136719 470.207031 480.058594 C 470.4375 480.136719 470.824219 480.058594 471.054688 480.058594 C 472.132812 480.136719 473.132812 480.136719 474.210938 480.210938 C 474.519531 480.210938 474.828125 480.289062 475.136719 480.210938 C 475.828125 480.675781 476.675781 480.980469 477.367188 481.367188 C 478.0625 481.75 478.910156 482.367188 479.679688 482.523438 C 479.910156 482.828125 480.21875 483.058594 480.527344 483.367188 C 480.832031 483.675781 481.140625 483.984375 481.371094 484.214844 C 481.988281 484.984375 482.605469 485.675781 483.222656 486.445312 C 483.375 486.675781 483.527344 486.90625 483.761719 487.0625 C 483.453125 486.675781 483.683594 486.984375 483.761719 487.292969 C 484.222656 488.292969 484.605469 489.214844 485.070312 490.21875 C 485.222656 490.601562 485.378906 490.988281 485.609375 491.371094 C 485.609375 491.449219 485.683594 491.449219 485.683594 491.523438 C 485.761719 492.371094 486.148438 493.21875 486.378906 493.988281 C 486.457031 494.371094 486.53125 494.835938 486.53125 495.21875 C 486.609375 495.527344 486.609375 495.835938 486.6875 496.144531 C 486.6875 496.144531 486.6875 496.21875 486.6875 496.296875 C 486.609375 497.21875 486.6875 498.066406 486.6875 498.988281 C 486.6875 499.835938 486.609375 500.761719 486.6875 501.605469 C 486.609375 501.992188 486.53125 502.300781 486.457031 502.683594 C 486.222656 503.761719 485.992188 504.761719 485.761719 505.839844 C 485.53125 507.148438 485.070312 508.300781 484.605469 509.53125 C 484.375 510.6875 484.066406 511.535156 483.761719 512.378906 Z M 445.796875 512.765625 C 446.179688 511.304688 446.640625 509.917969 446.949219 508.457031 C 447.335938 506.761719 447.644531 504.914062 448.183594 503.222656 C 448.722656 501.605469 449.492188 500.066406 450.109375 498.527344 C 450.648438 497.144531 451.109375 495.757812 451.570312 494.371094 C 451.726562 493.910156 451.878906 493.527344 452.03125 493.0625 C 452.03125 492.988281 452.109375 492.910156 452.109375 492.910156 C 452.648438 492.371094 453.035156 491.449219 453.496094 490.832031 C 454.265625 489.679688 455.035156 488.523438 455.804688 487.371094 C 456.421875 486.445312 457.117188 485.523438 457.730469 484.675781 C 457.960938 484.367188 458.117188 484.136719 458.347656 483.828125 C 458.347656 483.828125 458.425781 483.753906 458.5 483.753906 C 459.886719 482.753906 461.121094 481.519531 462.429688 480.445312 C 462.199219 480.597656 462.582031 480.367188 462.738281 480.289062 C 463.199219 480.058594 463.660156 479.90625 464.199219 479.675781 C 465.125 479.289062 466.046875 478.828125 466.972656 478.441406 C 467.203125 478.441406 467.511719 478.367188 467.742188 478.367188 C 467.820312 478.367188 467.894531 478.367188 467.972656 478.367188 C 467.589844 478.519531 467.203125 478.75 466.816406 478.90625 C 466.125 479.210938 465.433594 479.441406 464.816406 479.75 C 464.199219 480.058594 463.660156 480.597656 463.121094 480.980469 C 461.964844 481.984375 460.503906 482.90625 459.65625 484.136719 C 457.730469 486.832031 455.882812 489.679688 454.113281 492.449219 C 453.34375 493.679688 452.957031 494.988281 452.496094 496.375 C 452.265625 497.144531 451.800781 497.988281 451.648438 498.757812 C 451.648438 498.757812 451.648438 498.835938 451.570312 498.835938 C 451.417969 499.222656 451.1875 499.605469 451.03125 499.992188 C 450.414062 501.375 449.644531 502.761719 449.183594 504.222656 C 448.644531 505.839844 448.257812 507.53125 447.644531 509.148438 C 447.105469 510.6875 446.488281 512.148438 445.871094 513.6875 C 445.71875 514.074219 445.5625 514.535156 445.488281 514.921875 C 445.488281 514.613281 445.5625 514.304688 445.5625 513.996094 C 445.5625 513.996094 445.5625 513.917969 445.5625 513.917969 C 445.640625 513.613281 445.71875 513.148438 445.796875 512.765625 Z M 415.070312 497.066406 C 415.144531 497.066406 415.144531 497.144531 415.222656 497.144531 C 415.070312 497.144531 414.839844 496.914062 415.070312 497.066406 Z M 395.125 493.832031 C 395.203125 493.757812 395.433594 493.601562 395.507812 493.449219 C 395.972656 493.296875 396.433594 493.140625 396.894531 492.988281 C 397.820312 492.679688 398.820312 492.371094 399.746094 491.988281 C 399.746094 491.988281 399.820312 491.988281 399.820312 491.988281 C 400.050781 492.0625 400.515625 491.988281 400.746094 492.0625 C 401.824219 492.140625 402.824219 492.21875 403.902344 492.292969 C 404.132812 492.292969 404.363281 492.371094 404.597656 492.371094 C 404.671875 492.371094 404.828125 492.449219 404.828125 492.449219 C 405.675781 492.832031 406.597656 493.0625 407.445312 493.371094 C 408.292969 493.679688 409.140625 493.988281 409.988281 494.296875 C 410.0625 494.449219 410.601562 494.605469 410.757812 494.679688 C 411.679688 495.21875 412.605469 495.679688 413.527344 496.21875 C 413.992188 496.449219 414.683594 497.066406 415.222656 497.144531 C 415.300781 497.144531 415.300781 497.21875 415.378906 497.21875 C 415.761719 497.527344 416.070312 497.757812 416.457031 498.066406 C 417.300781 498.683594 418.074219 499.375 418.917969 499.992188 C 419.921875 500.835938 421 501.605469 422 502.375 C 422.769531 502.992188 423.617188 503.609375 424.386719 504.222656 C 424.464844 504.300781 424.542969 504.378906 424.695312 504.453125 C 424.695312 504.53125 424.925781 504.761719 425.003906 504.839844 C 426.160156 506.222656 427.238281 507.609375 428.390625 508.917969 C 428.390625 508.917969 428.390625 508.917969 428.390625 508.996094 C 428.546875 509.300781 428.777344 509.6875 429.007812 509.996094 C 429.546875 510.839844 430.085938 511.765625 430.625 512.609375 C 430.933594 513.074219 431.164062 513.613281 431.472656 514.074219 C 430.238281 512.304688 428.929688 510.609375 427.46875 508.996094 C 426.3125 507.761719 425.3125 506.378906 424.078125 505.222656 C 422.847656 504.070312 421.230469 503.144531 419.921875 502.222656 C 417.839844 500.761719 415.917969 498.835938 413.605469 497.757812 C 412.066406 496.988281 410.601562 496.066406 408.984375 495.449219 C 407.445312 494.910156 405.75 494.449219 404.210938 493.988281 C 402.902344 493.601562 401.59375 493.679688 400.207031 493.679688 C 398.742188 493.679688 397.28125 493.449219 395.894531 494.066406 C 395.355469 494.296875 394.738281 494.605469 394.199219 494.835938 C 394.429688 494.527344 394.816406 494.140625 395.125 493.832031 Z M 416.222656 552.167969 C 414.144531 550.398438 412.21875 548.472656 410.527344 546.316406 C 408.832031 544.238281 407.214844 542.164062 405.597656 540.007812 C 407.292969 541.625 408.984375 543.316406 410.601562 545.085938 C 412.449219 547.085938 414.53125 548.78125 416.300781 550.78125 C 418.535156 553.242188 420.769531 555.707031 423.078125 558.167969 C 423.230469 558.324219 423.386719 558.476562 423.617188 558.707031 C 423.539062 558.632812 423.386719 558.554688 423.308594 558.398438 C 420.769531 556.398438 418.535156 554.246094 416.222656 552.167969 Z M 482.375 523 C 481.988281 524 481.605469 524.925781 481.21875 525.925781 C 481.066406 526.308594 480.910156 526.695312 480.757812 527.078125 C 480.757812 527.078125 480.757812 527.078125 480.757812 527.15625 C 480.757812 527.15625 480.757812 527.15625 480.757812 527.234375 C 479.832031 528.695312 479.0625 530.3125 478.292969 531.851562 C 477.523438 533.390625 477.058594 535.082031 476.445312 536.699219 C 476.445312 536.777344 476.367188 536.851562 476.367188 537.007812 C 476.445312 536.851562 476.367188 537.007812 476.367188 537.082031 C 476.367188 537.082031 476.367188 537.160156 476.367188 537.160156 C 476.367188 537.160156 476.367188 537.238281 476.367188 537.238281 C 476.289062 537.390625 476.214844 537.546875 476.136719 537.699219 C 475.75 538.699219 475.289062 539.621094 474.902344 540.625 C 473.824219 543.238281 472.671875 545.855469 471.285156 548.320312 C 470.589844 549.628906 469.746094 550.859375 469.128906 552.167969 C 468.433594 553.628906 467.820312 555.167969 467.125 556.554688 C 465.664062 559.554688 464.121094 562.480469 462.660156 565.480469 C 461.425781 568.019531 459.964844 570.480469 458.5 572.945312 C 457.730469 574.175781 457.039062 575.40625 456.269531 576.640625 C 455.574219 577.945312 454.882812 579.253906 454.035156 580.488281 C 453.34375 581.410156 452.726562 582.332031 452.03125 583.257812 C 451.570312 582.871094 451.109375 582.410156 450.570312 582.027344 C 450.570312 581.949219 450.570312 581.949219 450.648438 581.871094 C 452.265625 579.332031 453.882812 576.792969 455.421875 574.175781 C 456.808594 571.789062 458.039062 569.25 459.425781 566.867188 C 460.195312 565.558594 460.964844 564.25 461.660156 562.941406 C 462.429688 561.402344 463.121094 559.863281 463.96875 558.398438 C 464.738281 556.9375 465.738281 555.628906 466.585938 554.246094 C 467.355469 553.011719 467.972656 551.628906 468.589844 550.398438 C 469.820312 547.933594 471.054688 545.472656 472.132812 542.933594 C 472.746094 541.546875 473.210938 540.007812 473.980469 538.621094 C 474.828125 537.082031 475.828125 535.699219 476.675781 534.160156 C 478.0625 531.542969 479.214844 528.773438 480.449219 526.078125 C 481.605469 523.617188 482.988281 521.308594 484.066406 518.84375 C 483.527344 520.074219 482.988281 521.539062 482.375 523 Z M 392.042969 315.757812 C 393.660156 317.988281 394.96875 320.375 396.511719 322.53125 C 398.511719 325.222656 400.359375 327.992188 402.132812 330.839844 C 403.671875 333.226562 405.367188 335.535156 407.214844 337.691406 C 407.832031 338.382812 408.371094 339.074219 408.984375 339.769531 C 408.984375 339.769531 408.984375 339.769531 409.0625 339.84375 C 409.292969 340.152344 409.523438 340.460938 409.753906 340.769531 C 410.679688 342 411.527344 343.230469 412.527344 344.460938 C 413.605469 345.769531 414.605469 347.15625 415.761719 348.308594 C 415.222656 347.769531 415.839844 348.386719 415.917969 348.539062 C 416.222656 348.925781 416.53125 349.308594 416.839844 349.695312 C 417.457031 350.464844 417.996094 351.234375 418.613281 352.003906 C 420.382812 354.3125 422.230469 356.542969 424.308594 358.546875 C 424.542969 358.777344 424.773438 359.007812 425.003906 359.238281 C 425.003906 359.238281 425.082031 359.316406 425.082031 359.316406 C 425.925781 360.390625 426.929688 361.316406 427.929688 362.316406 C 428.699219 363.164062 429.390625 363.933594 430.164062 364.777344 C 431.242188 365.933594 432.320312 367.164062 433.472656 368.320312 C 434.167969 369.011719 435.015625 368.78125 435.476562 368.164062 C 435.554688 368.085938 435.628906 367.933594 435.628906 367.78125 C 437.402344 365.164062 439.171875 362.625 441.019531 360.085938 C 441.867188 358.929688 442.636719 357.777344 443.484375 356.699219 C 444.101562 355.929688 444.640625 355.082031 445.257812 354.3125 C 445.257812 354.3125 445.332031 354.234375 445.332031 354.234375 C 445.5625 354.003906 445.71875 353.773438 445.949219 353.542969 C 448.183594 350.925781 450.261719 348.234375 452.496094 345.617188 C 453.496094 344.460938 454.726562 343.386719 455.804688 342.230469 C 456.808594 341.230469 457.65625 340.152344 458.578125 339.074219 C 460.503906 336.765625 462.351562 334.457031 464.046875 331.917969 C 465.046875 330.378906 465.894531 328.839844 466.894531 327.300781 C 467.820312 325.992188 468.820312 324.683594 469.820312 323.375 C 471.515625 321.144531 472.746094 318.527344 473.980469 316.066406 C 475.441406 313.21875 476.984375 310.449219 478.445312 307.675781 C 479.910156 304.828125 481.21875 301.984375 482.527344 299.058594 C 483.066406 297.75 483.605469 296.519531 483.992188 295.132812 C 484.453125 293.75 484.992188 292.363281 485.222656 290.902344 C 485.53125 289.128906 485.917969 287.4375 486.148438 285.667969 C 486.378906 283.976562 486.53125 282.203125 486.6875 280.511719 C 486.839844 279.203125 486.457031 277.742188 486.148438 276.433594 C 486.070312 275.742188 486.070312 275.046875 485.917969 274.355469 C 485.761719 273.664062 485.378906 272.96875 485.070312 272.355469 C 484.53125 271.429688 484.066406 270.429688 483.527344 269.507812 C 483.296875 269.046875 483.066406 268.582031 482.683594 268.199219 C 481.605469 267.199219 480.371094 266.351562 479.140625 265.503906 C 478.832031 265.199219 478.445312 264.890625 478.0625 264.660156 C 477.445312 264.351562 476.445312 264.351562 475.75 264.273438 C 474.671875 264.121094 473.59375 264.042969 472.515625 263.890625 C 471.054688 263.734375 469.667969 263.964844 468.203125 264.042969 C 466.742188 264.121094 465.355469 264.351562 463.96875 264.660156 C 462.503906 265.042969 460.8125 265.199219 459.425781 265.890625 C 456.269531 267.429688 453.34375 269.121094 450.339844 270.890625 C 449.03125 271.660156 448.105469 272.96875 447.105469 274.125 C 446.179688 275.125 445.332031 276.125 444.410156 277.203125 C 443.40625 278.355469 442.175781 279.511719 441.40625 280.820312 C 440.558594 282.359375 439.710938 283.898438 438.863281 285.4375 C 438.015625 286.976562 437.171875 288.4375 436.398438 289.976562 C 435.628906 291.285156 435.320312 292.824219 434.859375 294.285156 C 434.011719 296.902344 433.011719 299.519531 432.242188 302.214844 C 431.855469 301.058594 431.164062 299.90625 430.625 298.828125 C 430.007812 297.597656 429.46875 296.59375 428.699219 295.519531 C 427.929688 294.441406 427.160156 293.363281 426.390625 292.285156 C 425.464844 290.976562 424.464844 289.59375 423.539062 288.285156 C 422.617188 287.054688 421.308594 285.976562 420.152344 284.898438 C 419.226562 283.898438 418.148438 283.128906 417.148438 282.28125 C 416.300781 281.589844 415.53125 280.972656 414.683594 280.359375 C 413.914062 279.742188 413.066406 279.203125 412.144531 278.664062 C 410.988281 277.894531 409.832031 277.203125 408.675781 276.355469 C 407.523438 275.507812 406.367188 274.507812 405.058594 273.738281 C 402.207031 272.046875 399.28125 270.585938 396.277344 269.121094 C 395.046875 268.507812 393.660156 268.507812 392.199219 268.351562 C 391.195312 268.277344 390.195312 268.121094 389.195312 268.042969 C 388.578125 267.96875 388.117188 267.890625 387.578125 268.199219 C 385.960938 269.046875 384.496094 270.199219 382.957031 271.125 C 382.496094 271.429688 381.800781 271.738281 381.492188 272.277344 C 381.109375 272.96875 380.800781 273.816406 380.492188 274.507812 C 379.875 275.894531 379.335938 277.125 378.953125 278.585938 C 378.566406 279.972656 378.183594 281.433594 377.953125 282.820312 C 377.796875 283.820312 377.644531 284.898438 377.488281 285.898438 C 377.414062 286.515625 377.257812 287.054688 377.414062 287.667969 C 377.796875 289.363281 378.257812 291.132812 378.722656 292.824219 C 380.339844 298.441406 383.1875 303.597656 386.578125 308.371094 C 388.269531 310.910156 390.195312 313.296875 392.042969 315.757812 Z M 384.421875 281.820312 C 384.574219 281.511719 384.726562 281.128906 384.882812 280.820312 C 385.265625 279.894531 385.652344 278.972656 386.039062 278.050781 C 386.113281 277.816406 386.269531 277.585938 386.34375 277.355469 C 387.039062 276.972656 387.730469 276.511719 388.347656 276.046875 C 388.734375 275.816406 389.117188 275.507812 389.578125 275.277344 C 389.734375 275.203125 390.117188 275.046875 390.273438 274.816406 C 390.582031 274.816406 390.890625 274.738281 391.195312 274.738281 C 392.199219 274.664062 393.121094 274.507812 394.125 274.433594 C 394.429688 274.433594 394.816406 274.433594 395.046875 274.355469 C 395.894531 274.585938 396.742188 274.738281 397.589844 274.894531 C 398.28125 275.046875 399.207031 275.433594 399.898438 275.433594 C 400.207031 275.585938 400.589844 275.742188 400.898438 275.894531 C 402.132812 276.433594 403.519531 276.894531 404.671875 277.585938 C 406.136719 278.433594 407.445312 279.433594 408.910156 280.28125 C 410.0625 280.972656 411.371094 281.667969 412.527344 282.359375 C 412.757812 282.4375 412.914062 282.589844 413.144531 282.742188 C 413.296875 282.898438 413.527344 283.050781 413.683594 283.207031 C 414.761719 284.207031 415.917969 285.128906 416.996094 286.128906 C 417.609375 286.746094 418.304688 287.4375 418.917969 288.054688 C 419.304688 288.4375 419.613281 288.746094 419.996094 289.128906 C 420.152344 289.285156 420.382812 289.667969 420.613281 289.746094 C 420.613281 289.746094 420.691406 289.824219 420.691406 289.824219 C 420.921875 290.207031 421.230469 290.515625 421.460938 290.902344 C 422.078125 291.671875 422.617188 292.515625 423.230469 293.285156 C 424.078125 294.363281 424.847656 295.519531 425.695312 296.59375 C 426.542969 297.671875 427.160156 298.671875 427.773438 299.828125 C 428.238281 300.75 428.777344 301.597656 429.238281 302.519531 C 429.316406 302.597656 429.316406 302.753906 429.390625 302.828125 C 429.390625 302.753906 429.390625 302.753906 429.390625 302.90625 C 429.390625 302.984375 429.46875 302.984375 429.46875 303.058594 C 429.390625 302.984375 429.390625 302.984375 429.390625 302.90625 C 429.390625 303.058594 429.46875 303.214844 429.46875 303.367188 C 429.855469 304.828125 430.164062 306.292969 430.546875 307.753906 C 430.546875 308.0625 430.625 308.292969 430.777344 308.445312 C 431.007812 308.832031 431.394531 309.0625 431.78125 309.0625 C 432.242188 309.140625 432.703125 308.984375 432.933594 308.523438 C 433.011719 308.371094 433.089844 308.292969 433.164062 308.140625 C 435.015625 304.523438 436.9375 300.980469 438.632812 297.363281 C 439.25 296.132812 439.710938 294.824219 440.40625 293.671875 C 440.867188 292.824219 441.40625 292.132812 441.945312 291.363281 C 443.175781 289.4375 444.410156 287.515625 445.5625 285.589844 C 445.796875 285.28125 446.257812 284.667969 446.335938 284.28125 C 446.488281 284.128906 446.566406 283.976562 446.71875 283.820312 C 447.644531 282.742188 448.566406 281.667969 449.492188 280.589844 C 450.03125 279.894531 450.570312 279.203125 451.109375 278.511719 C 451.570312 277.894531 452.03125 277.28125 452.570312 276.585938 C 452.804688 276.355469 453.035156 276.046875 453.265625 275.742188 C 453.417969 275.585938 453.574219 275.507812 453.804688 275.355469 C 454.421875 274.894531 455.035156 274.433594 455.652344 273.96875 C 456.34375 273.433594 456.960938 272.96875 457.65625 272.507812 C 458.808594 271.738281 459.964844 270.890625 461.121094 270.121094 C 461.273438 269.96875 461.503906 269.890625 461.660156 269.738281 C 461.734375 269.660156 461.734375 269.660156 461.734375 269.660156 C 462.121094 269.507812 462.503906 269.351562 462.890625 269.199219 C 464.121094 268.738281 465.355469 268.199219 466.585938 267.8125 C 467.511719 267.582031 468.511719 267.507812 469.4375 267.351562 C 470.128906 267.273438 470.898438 267.121094 471.59375 267.042969 C 471.667969 267.042969 471.824219 267.042969 471.902344 266.96875 C 471.902344 266.96875 471.902344 266.96875 471.976562 266.96875 C 472.515625 267.121094 473.210938 267.042969 473.824219 267.121094 C 474.597656 267.199219 475.367188 267.273438 476.136719 267.273438 C 476.367188 267.273438 476.597656 267.273438 476.828125 267.351562 C 477.445312 267.890625 478.0625 268.351562 478.753906 268.890625 C 479.214844 269.277344 479.753906 269.660156 480.21875 270.046875 C 480.371094 270.121094 480.527344 270.351562 480.679688 270.429688 C 480.757812 270.738281 481.066406 271.199219 481.21875 271.429688 C 481.527344 272.046875 481.910156 272.738281 482.21875 273.355469 C 482.449219 273.894531 482.757812 274.355469 482.988281 274.894531 C 482.988281 274.972656 483.066406 275.046875 483.066406 275.125 C 483.066406 275.125 483.066406 275.203125 483.066406 275.203125 C 483.066406 275.972656 483.222656 276.742188 483.375 277.511719 C 483.375 277.664062 483.453125 277.894531 483.453125 278.050781 C 483.527344 278.585938 483.605469 279.203125 483.605469 279.742188 C 483.605469 279.820312 483.605469 280.050781 483.605469 280.125 C 483.144531 281.972656 482.988281 283.820312 482.449219 285.589844 C 482.144531 286.746094 481.757812 287.898438 481.371094 289.128906 C 481.21875 289.59375 481.066406 290.054688 480.910156 290.515625 C 480.910156 290.515625 480.910156 290.59375 480.910156 290.59375 C 480.910156 290.59375 480.910156 290.667969 480.832031 290.824219 C 480.832031 290.824219 480.832031 290.824219 480.832031 290.902344 C 480.0625 292.59375 479.371094 294.441406 478.445312 296.132812 C 476.597656 299.441406 474.75 302.753906 472.671875 305.90625 C 471.667969 307.523438 470.515625 309.140625 469.589844 310.832031 C 468.667969 312.527344 467.742188 314.140625 466.816406 315.835938 C 465.894531 317.449219 464.96875 319.21875 463.890625 320.757812 C 462.738281 322.300781 461.425781 323.839844 460.425781 325.53125 C 458.5 328.917969 456.5 332.226562 454.34375 335.457031 C 453.648438 336.535156 452.878906 337.613281 452.1875 338.691406 C 452.109375 338.765625 452.03125 338.921875 451.957031 339.074219 C 451.648438 339.460938 451.339844 339.84375 451.109375 340.152344 C 449.875 341.691406 448.644531 343.230469 447.488281 344.925781 C 445.332031 348.234375 443.023438 351.386719 440.945312 354.699219 C 438.863281 358.082031 436.707031 361.316406 434.550781 364.625 C 434.398438 364.933594 434.167969 365.164062 434.011719 365.472656 C 432.78125 364.164062 431.625 362.855469 430.316406 361.546875 C 429.855469 361.007812 429.390625 360.546875 428.929688 360.007812 C 428.238281 359.238281 427.46875 358.46875 426.773438 357.777344 C 426.234375 357.082031 425.695312 356.390625 425.15625 355.699219 C 424.925781 355.390625 424.695312 355.160156 424.464844 354.851562 C 424.386719 354.773438 424.386719 354.773438 424.386719 354.699219 C 422.539062 352.3125 420.691406 349.925781 418.765625 347.617188 C 418.378906 347.15625 417.996094 346.539062 417.535156 346.15625 C 417.609375 346.230469 417.609375 346.230469 417.6875 346.308594 C 417.609375 346.230469 417.535156 346.15625 417.457031 346.078125 C 417.226562 345.769531 416.917969 345.386719 416.6875 345.078125 C 415.839844 344 415.070312 342.769531 414.144531 341.769531 C 413.066406 340.460938 411.988281 339.230469 410.832031 337.996094 C 410.832031 337.996094 410.832031 337.996094 410.757812 337.921875 C 410.601562 337.691406 410.371094 337.460938 410.21875 337.152344 C 409.601562 336.382812 409.0625 335.535156 408.445312 334.765625 C 406.984375 332.765625 405.75 330.609375 404.289062 328.609375 C 403.363281 327.300781 402.285156 326.070312 401.4375 324.683594 C 400.589844 323.453125 399.898438 322.066406 399.128906 320.757812 C 397.894531 318.683594 396.433594 316.757812 395.046875 314.757812 C 393.277344 312.21875 391.660156 309.753906 390.117188 307.0625 C 389.425781 305.90625 388.886719 304.675781 388.269531 303.445312 C 388.117188 303.136719 387.960938 302.753906 387.730469 302.445312 C 387.730469 302.367188 387.65625 302.367188 387.65625 302.289062 C 387.5 301.597656 387.191406 300.90625 386.960938 300.289062 C 386.578125 299.136719 386.113281 297.902344 385.730469 296.75 C 385.421875 295.824219 385.113281 294.902344 384.804688 293.980469 C 384.652344 293.59375 384.574219 293.285156 384.421875 292.902344 C 384.421875 292.824219 384.34375 292.671875 384.34375 292.515625 C 384.34375 290.976562 384.035156 289.4375 383.882812 287.898438 C 383.726562 286.667969 384.035156 285.28125 384.113281 284.050781 C 384.34375 283.28125 384.496094 282.4375 384.421875 281.820312 Z M 384.34375 281.972656 C 384.34375 282.203125 384.1875 282.359375 384.34375 281.972656 Z M 453.574219 275.433594 C 453.574219 275.507812 453.496094 275.585938 453.496094 275.585938 C 453.496094 275.507812 453.496094 275.433594 453.574219 275.433594 Z M 453.417969 275.585938 C 453.1875 275.894531 452.957031 275.972656 453.265625 275.664062 C 453.34375 275.664062 453.417969 275.664062 453.417969 275.585938 Z M 470.207031 317.605469 C 469.28125 319.296875 468.359375 320.992188 467.203125 322.53125 C 466.046875 324.144531 464.816406 325.683594 463.738281 327.300781 C 462.660156 328.992188 461.660156 330.609375 460.503906 332.226562 C 459.808594 333.226562 459.039062 334.148438 458.347656 335.152344 C 458.347656 335.152344 458.347656 335.152344 458.425781 335.074219 C 458.425781 335.074219 458.347656 335.152344 458.347656 335.152344 C 458.347656 335.152344 458.269531 335.226562 458.269531 335.226562 C 458.269531 335.226562 458.195312 335.304688 458.195312 335.304688 C 457.808594 335.765625 457.421875 336.226562 457.039062 336.691406 C 456.5 337.304688 455.960938 337.996094 455.421875 338.613281 C 455.730469 338.230469 455.960938 337.765625 456.269531 337.382812 C 457.886719 335.074219 459.503906 332.6875 460.886719 330.226562 C 461.734375 328.761719 462.503906 327.222656 463.429688 325.761719 C 464.355469 324.375 465.433594 323.070312 466.511719 321.683594 C 467.355469 320.527344 468.050781 319.144531 468.820312 317.914062 C 469.511719 316.757812 470.207031 315.605469 470.824219 314.371094 C 472.285156 311.679688 473.902344 309.140625 475.519531 306.601562 C 476.445312 305.0625 477.367188 303.523438 478.292969 301.90625 C 477.445312 303.675781 476.597656 305.445312 475.675781 307.214844 C 473.75 310.753906 472.132812 314.21875 470.207031 317.605469 Z M 451.261719 273.585938 C 451.417969 273.507812 451.417969 273.507812 451.261719 273.585938 Z M 443.945312 281.972656 C 443.945312 282.050781 443.792969 282.203125 443.945312 281.972656 Z M 439.867188 289.363281 C 441.019531 287.285156 442.175781 285.207031 443.332031 283.128906 C 443.5625 282.742188 443.945312 282.28125 444.023438 281.898438 C 444.179688 281.742188 444.332031 281.511719 444.484375 281.359375 C 445.410156 280.28125 446.410156 279.203125 447.335938 278.050781 C 447.875 277.433594 448.492188 276.742188 449.03125 276.125 C 449.570312 275.507812 450.109375 274.894531 450.570312 274.355469 C 450.722656 274.125 450.953125 273.96875 451.109375 273.738281 C 451.1875 273.664062 451.1875 273.664062 451.1875 273.585938 C 451.648438 273.355469 452.109375 273.125 452.570312 272.816406 C 452.570312 272.816406 452.496094 272.894531 452.496094 272.894531 C 452.03125 273.277344 451.492188 273.585938 451.109375 274.125 C 450.570312 274.816406 450.109375 275.507812 449.570312 276.203125 C 449.03125 276.894531 448.492188 277.585938 447.953125 278.355469 C 447.953125 278.355469 447.953125 278.355469 447.875 278.433594 C 447.644531 278.742188 447.414062 278.972656 447.179688 279.28125 C 446.179688 280.433594 444.949219 281.589844 444.101562 282.898438 C 443.175781 284.359375 442.328125 285.898438 441.40625 287.4375 C 440.558594 288.746094 439.632812 290.054688 438.789062 291.363281 C 438.632812 291.515625 438.554688 291.746094 438.402344 291.976562 C 438.402344 291.902344 438.402344 291.902344 438.480469 291.824219 C 438.554688 291.671875 438.632812 291.515625 438.710938 291.363281 C 439.171875 290.667969 439.480469 289.976562 439.867188 289.363281 Z M 383.109375 297.289062 C 383.1875 297.363281 383.1875 297.441406 383.1875 297.441406 C 383.109375 297.363281 383.109375 297.289062 383.035156 297.132812 C 382.496094 295.519531 381.800781 293.902344 381.339844 292.285156 C 380.878906 290.824219 380.570312 289.363281 380.183594 287.824219 C 380.109375 287.589844 380.109375 287.207031 379.953125 286.976562 C 380.109375 286.128906 380.183594 285.207031 380.339844 284.28125 C 380.492188 282.898438 380.800781 281.589844 381.1875 280.28125 C 381.339844 279.742188 381.417969 279.28125 381.570312 278.742188 C 381.648438 278.433594 381.878906 278.050781 381.800781 277.742188 C 381.800781 277.742188 381.800781 277.742188 381.800781 277.664062 C 381.957031 277.28125 382.1875 276.894531 382.339844 276.433594 C 382.726562 275.507812 383.1875 274.664062 383.574219 273.738281 C 383.574219 273.738281 383.574219 273.738281 383.574219 273.664062 C 383.726562 273.585938 383.882812 273.433594 383.957031 273.355469 C 385.421875 272.429688 387.117188 271.507812 388.5 270.429688 C 388.734375 270.429688 388.964844 270.429688 389.039062 270.429688 C 390.042969 270.507812 391.042969 270.660156 391.96875 270.738281 C 392.8125 270.816406 393.585938 270.96875 394.429688 271.046875 C 394.664062 271.125 394.894531 271.277344 395.125 271.355469 C 395.203125 271.429688 395.355469 271.429688 395.433594 271.507812 C 394.96875 271.429688 394.585938 271.429688 394.125 271.507812 C 393.121094 271.585938 392.121094 271.738281 391.121094 271.816406 C 390.425781 271.894531 389.578125 271.894531 388.964844 272.125 C 387.578125 272.816406 386.191406 273.894531 384.882812 274.738281 C 384.421875 275.046875 384.035156 275.277344 383.804688 275.816406 C 383.417969 276.585938 383.109375 277.433594 382.726562 278.28125 C 382.417969 279.050781 382.109375 279.820312 381.726562 280.589844 C 381.492188 281.128906 381.492188 281.667969 381.417969 282.28125 C 381.339844 283.820312 381.03125 285.4375 381.109375 287.054688 C 381.109375 288.59375 381.417969 290.207031 381.570312 291.824219 C 381.726562 293.210938 382.265625 294.441406 382.648438 295.75 C 382.957031 296.59375 383.1875 297.441406 383.496094 298.289062 C 383.417969 298.132812 383.34375 297.980469 383.1875 297.75 C 383.34375 297.75 383.265625 297.519531 383.109375 297.289062 Z M 569.855469 383.632812 C 569.777344 382.785156 569.855469 381.863281 569.699219 381.015625 C 569.546875 380.09375 569.316406 379.246094 569.085938 378.324219 C 568.851562 377.476562 568.777344 376.476562 568.46875 375.628906 C 568.238281 374.78125 567.699219 374.011719 567.390625 373.242188 C 566.929688 372.320312 566.542969 371.320312 566.082031 370.394531 C 565.695312 369.78125 565.15625 369.164062 564.695312 368.550781 C 564 367.703125 563.308594 366.703125 562.617188 365.855469 C 562.152344 365.316406 561.460938 365.007812 560.921875 364.703125 C 559.921875 364.085938 558.917969 363.46875 557.917969 362.855469 C 557.378906 362.46875 556.761719 362.394531 556.148438 362.238281 C 554.992188 361.929688 553.761719 361.699219 552.605469 361.390625 C 550.832031 361.007812 548.984375 360.929688 547.136719 360.777344 C 546.445312 360.699219 545.90625 360.621094 545.289062 360.855469 C 544.132812 361.160156 543.054688 361.546875 541.902344 361.929688 C 540.128906 362.46875 538.667969 363.316406 537.050781 364.164062 C 536.277344 364.546875 535.433594 364.855469 534.816406 365.394531 C 534.121094 366.011719 533.507812 366.703125 532.8125 367.316406 C 530.347656 369.78125 528.039062 372.398438 526.113281 375.320312 C 524.1875 378.324219 522.265625 381.324219 521.03125 384.710938 C 520.414062 386.328125 519.800781 388.019531 519.183594 389.636719 C 518.566406 391.25 517.71875 392.945312 517.257812 394.636719 C 516.796875 396.40625 516.257812 398.101562 515.71875 399.871094 C 515.410156 398.253906 514.792969 396.714844 514.332031 395.175781 C 513.871094 393.714844 513.40625 392.25 512.945312 390.789062 C 511.945312 387.632812 510.558594 384.710938 509.019531 381.785156 C 508.25 380.324219 507.554688 378.785156 506.632812 377.324219 C 505.628906 375.785156 504.78125 374.011719 503.628906 372.628906 C 502.472656 371.164062 501.316406 369.703125 500.007812 368.394531 C 499.546875 367.933594 499.007812 367.550781 498.46875 367.242188 C 497.542969 366.546875 496.621094 365.855469 495.695312 365.164062 C 494.386719 364.164062 492.847656 363.546875 491.382812 362.777344 C 490.691406 362.46875 490.074219 362.007812 489.304688 361.929688 C 488.378906 361.777344 487.457031 361.699219 486.53125 361.625 C 484.914062 361.390625 483.453125 361.316406 481.835938 361.316406 C 480.140625 361.390625 478.371094 361.160156 476.753906 361.777344 C 475.675781 362.160156 474.519531 362.625 473.441406 363.007812 C 472.902344 363.238281 472.207031 363.394531 471.746094 363.703125 C 470.898438 364.238281 470.050781 365.007812 469.207031 365.625 C 468.511719 366.164062 467.589844 366.625 467.050781 367.316406 C 466.585938 367.933594 466.277344 368.703125 465.972656 369.394531 C 465.507812 370.242188 465.046875 371.164062 464.585938 372.011719 C 464.277344 372.628906 464.277344 373.320312 464.199219 373.9375 C 464.046875 375.089844 463.890625 376.167969 463.660156 377.324219 C 463.429688 378.9375 463.507812 380.632812 463.582031 382.324219 C 463.429688 383.015625 463.351562 383.710938 463.277344 384.480469 C 462.96875 388.019531 462.8125 391.558594 462.503906 395.097656 C 462.351562 396.714844 462.660156 398.410156 462.8125 400.023438 C 462.96875 401.71875 463.507812 403.179688 464.046875 404.71875 C 465.046875 407.71875 466.125 410.644531 467.433594 413.492188 C 468.128906 414.878906 468.667969 416.417969 469.511719 417.722656 C 470.515625 419.109375 471.59375 420.417969 472.441406 421.878906 C 473.363281 423.496094 474.058594 425.1875 474.980469 426.804688 C 475.828125 428.265625 476.828125 429.730469 477.675781 431.191406 C 479.371094 433.808594 481.140625 436.425781 482.757812 439.042969 C 484.375 441.65625 485.761719 444.351562 487.300781 446.96875 C 489.074219 449.96875 490.84375 452.894531 492.539062 455.972656 C 493.386719 457.511719 494.15625 459.125 495.003906 460.664062 C 495.773438 462.128906 496.695312 463.4375 497.542969 464.820312 C 499.160156 467.359375 500.703125 469.976562 502.164062 472.671875 C 502.859375 473.980469 503.628906 475.289062 504.242188 476.671875 C 504.9375 478.136719 505.554688 479.675781 506.398438 481.058594 C 507.324219 482.597656 508.25 484.0625 509.171875 485.601562 C 509.867188 486.753906 511.328125 486.214844 511.636719 485.214844 C 512.714844 484.136719 513.792969 483.058594 514.792969 481.90625 C 515.949219 480.597656 517.027344 479.136719 518.105469 477.828125 C 520.339844 475.132812 522.726562 472.515625 525.113281 469.902344 C 527.5 467.285156 529.65625 464.515625 531.890625 461.820312 C 533.042969 460.433594 534.199219 459.125 535.277344 457.820312 C 536.433594 456.355469 537.511719 454.816406 538.667969 453.355469 C 539.746094 451.96875 540.976562 450.660156 541.902344 449.199219 C 542.824219 447.738281 543.441406 446.042969 544.363281 444.503906 C 545.289062 442.890625 546.519531 441.425781 547.523438 439.886719 C 548.523438 438.347656 549.371094 436.808594 550.292969 435.269531 C 553.835938 429.421875 556.761719 423.34375 559.921875 417.339844 C 561.460938 414.339844 562.847656 411.261719 564.308594 408.257812 C 565.078125 406.644531 566.15625 405.027344 566.695312 403.257812 C 567.234375 401.5625 567.773438 399.871094 568.160156 398.101562 C 568.546875 396.253906 569.085938 394.40625 569.316406 392.558594 C 569.546875 390.789062 569.929688 388.941406 569.929688 387.171875 C 570.007812 385.710938 569.929688 384.632812 569.855469 383.632812 Z M 523.648438 384.710938 C 523.726562 384.632812 523.726562 384.480469 523.804688 384.402344 C 524.34375 383.324219 524.882812 382.246094 525.421875 381.171875 C 526.191406 379.632812 527.113281 378.324219 528.039062 376.859375 C 528.347656 376.398438 528.578125 376.015625 528.886719 375.550781 C 528.964844 375.476562 529.039062 375.320312 529.117188 375.246094 C 529.808594 374.476562 530.425781 373.707031 531.042969 372.9375 C 532.121094 371.628906 533.277344 370.394531 534.507812 369.164062 C 535.125 368.550781 535.816406 368.011719 536.355469 367.316406 C 536.511719 367.242188 536.664062 367.164062 536.742188 367.085938 C 537.28125 366.78125 537.820312 366.546875 538.359375 366.242188 C 538.898438 365.933594 539.4375 365.703125 539.976562 365.394531 C 540.285156 365.242188 540.746094 365.085938 541.054688 364.855469 C 541.128906 364.855469 541.207031 364.777344 541.285156 364.777344 C 541.824219 364.625 542.285156 364.472656 542.824219 364.316406 C 543.902344 364.007812 544.980469 363.703125 545.980469 363.316406 C 545.980469 363.316406 546.058594 363.316406 546.058594 363.316406 C 546.519531 363.394531 547.058594 363.394531 547.523438 363.46875 C 548.675781 363.546875 549.753906 363.703125 550.910156 363.777344 C 550.988281 363.777344 550.988281 363.777344 551.066406 363.777344 C 551.449219 363.933594 551.988281 364.007812 552.375 364.085938 C 553.527344 364.316406 554.605469 364.625 555.761719 364.855469 C 555.914062 364.855469 555.992188 364.933594 556.148438 364.933594 C 556.378906 365.164062 556.761719 365.316406 557.070312 365.472656 C 558.070312 366.085938 559.148438 366.78125 560.152344 367.394531 C 560.226562 367.472656 560.382812 367.550781 560.460938 367.550781 C 560.460938 367.550781 560.460938 367.550781 560.460938 367.472656 C 560.460938 367.472656 560.460938 367.472656 560.460938 367.550781 C 560.535156 367.550781 560.535156 367.625 560.613281 367.625 C 560.84375 367.703125 560.613281 367.703125 560.460938 367.550781 C 560.535156 367.78125 560.921875 368.085938 561.074219 368.320312 C 561.84375 369.320312 562.617188 370.242188 563.386719 371.242188 C 563.460938 371.320312 563.539062 371.472656 563.617188 371.550781 C 563.617188 371.550781 563.695312 371.628906 563.695312 371.628906 C 563.847656 371.859375 563.695312 371.703125 563.617188 371.628906 C 563.695312 371.859375 563.925781 372.242188 564 372.398438 C 564.539062 373.476562 565.003906 374.628906 565.542969 375.707031 C 565.695312 375.9375 565.773438 376.246094 565.925781 376.476562 C 565.695312 375.9375 565.773438 376.398438 565.925781 376.707031 C 565.464844 375.859375 565.078125 374.9375 564.617188 374.089844 C 564.308594 373.476562 564 372.628906 563.539062 372.089844 C 563.078125 371.550781 562.382812 371.089844 561.84375 370.550781 C 560.765625 369.550781 559.613281 368.164062 558.226562 367.472656 C 556.53125 366.625 554.839844 365.703125 553.066406 364.933594 C 552.375 364.625 551.605469 364.777344 550.832031 364.777344 C 549.679688 364.777344 548.523438 364.777344 547.445312 364.855469 C 545.828125 364.855469 544.210938 365.546875 542.671875 366.085938 C 542.054688 366.316406 541.285156 366.394531 540.667969 366.78125 C 539.898438 367.164062 539.128906 367.703125 538.359375 368.164062 C 537.589844 368.625 536.816406 369.089844 536.046875 369.550781 C 535.507812 369.933594 535.046875 370.472656 534.585938 370.933594 C 533.507812 372.089844 532.351562 373.167969 531.273438 374.320312 C 530.503906 375.089844 529.808594 375.9375 529.039062 376.707031 C 528.578125 377.246094 527.960938 377.785156 527.578125 378.324219 C 526.574219 379.863281 525.730469 381.476562 524.882812 383.09375 C 524.1875 384.324219 523.574219 385.480469 522.878906 386.710938 C 523.035156 386.328125 523.1875 385.863281 523.34375 385.480469 C 523.417969 385.324219 523.574219 385.019531 523.648438 384.710938 Z M 564.847656 390.558594 C 564.847656 390.558594 564.847656 390.480469 564.847656 390.480469 C 564.847656 390.558594 564.773438 390.710938 564.773438 390.789062 C 564.617188 391.328125 564.539062 391.789062 564.386719 392.328125 C 564.15625 393.40625 563.847656 394.40625 563.617188 395.484375 C 563.230469 396.945312 562.617188 398.332031 562.078125 399.714844 C 561.613281 401.023438 561.074219 402.332031 560.613281 403.71875 C 560.226562 404.71875 559.84375 405.71875 559.535156 406.71875 C 559.535156 406.796875 559.457031 406.796875 559.457031 406.875 C 559.304688 407.105469 559.148438 407.414062 558.996094 407.644531 C 558.148438 409.105469 557.378906 410.644531 556.53125 412.03125 C 555.53125 413.570312 554.375 415.109375 553.375 416.648438 C 552.527344 417.957031 551.835938 419.496094 551.140625 420.878906 C 550.449219 422.265625 549.371094 423.496094 548.445312 424.804688 C 547.523438 426.035156 546.753906 427.265625 545.980469 428.574219 C 544.441406 431.191406 542.980469 433.808594 541.4375 436.425781 C 539.746094 439.195312 537.894531 441.964844 536.125 444.660156 C 534.199219 447.582031 532.351562 450.429688 530.425781 453.355469 C 529.578125 454.664062 528.578125 455.972656 527.578125 457.203125 C 526.652344 458.433594 525.882812 459.742188 525.035156 461.050781 C 523.417969 463.589844 521.800781 466.128906 520.03125 468.515625 C 519.414062 469.363281 518.722656 470.285156 518.105469 471.132812 C 518.027344 471.285156 517.875 471.363281 517.875 471.441406 C 517.875 471.441406 517.953125 471.363281 518.027344 471.285156 C 517.796875 471.515625 517.566406 471.824219 517.414062 472.054688 C 516.335938 473.363281 515.179688 474.59375 514.179688 475.902344 C 513.640625 476.671875 513.175781 477.367188 512.636719 478.136719 C 511.40625 475.59375 510.25 473.132812 508.941406 470.59375 C 507.476562 467.746094 505.707031 465.050781 503.859375 462.4375 C 502.085938 459.820312 500.46875 457.125 498.699219 454.507812 C 497.773438 453.125 496.851562 451.816406 496.003906 450.429688 C 495.15625 448.96875 494.386719 447.507812 493.386719 446.121094 C 492.308594 444.660156 491.074219 443.351562 490.152344 441.8125 C 489.226562 440.347656 488.535156 438.65625 487.765625 437.117188 C 486.148438 434.117188 484.53125 431.191406 482.988281 428.191406 C 481.449219 425.265625 479.910156 422.417969 478.445312 419.496094 C 477.058594 416.648438 475.75 413.722656 474.441406 410.875 C 474.210938 410.414062 473.980469 409.875 473.75 409.414062 C 473.671875 409.257812 473.363281 408.488281 473.59375 409.105469 C 473.285156 408.257812 472.902344 407.414062 472.59375 406.566406 C 471.976562 405.027344 471.363281 403.488281 470.667969 401.949219 C 470.207031 401.023438 469.820312 400.023438 469.359375 399.101562 C 469.359375 399.101562 469.359375 399.101562 469.359375 399.023438 C 469.359375 399.023438 469.359375 398.945312 469.359375 398.945312 C 469.28125 398.484375 469.128906 398.101562 468.972656 397.640625 C 468.511719 396.101562 467.972656 394.5625 467.664062 392.945312 C 467.433594 391.789062 467.28125 390.636719 467.050781 389.40625 C 466.972656 389.097656 466.972656 388.789062 466.894531 388.480469 C 466.894531 388.402344 466.894531 388.328125 466.894531 388.25 C 466.664062 386.558594 466.355469 384.863281 466.277344 383.171875 C 466.277344 382.941406 466.277344 382.632812 466.277344 382.402344 C 466.355469 381.863281 466.433594 381.324219 466.585938 380.785156 C 466.664062 380.324219 466.742188 379.863281 466.816406 379.476562 C 466.816406 379.398438 466.894531 379.246094 466.894531 379.09375 C 467.355469 378.476562 467.589844 377.554688 467.972656 376.9375 C 468.433594 376.015625 468.898438 375.015625 469.359375 374.089844 C 469.359375 374.011719 469.4375 373.9375 469.511719 373.859375 C 469.746094 373.707031 469.898438 373.472656 470.050781 373.320312 C 470.824219 372.550781 471.667969 371.78125 472.441406 370.933594 C 472.746094 370.628906 473.132812 370.242188 473.441406 369.933594 C 473.519531 369.859375 473.519531 369.859375 473.59375 369.78125 C 474.210938 369.550781 474.902344 369.242188 475.441406 369.011719 C 476.445312 368.625 477.445312 368.164062 478.445312 367.78125 C 478.523438 367.78125 478.832031 367.703125 478.984375 367.625 C 478.832031 367.703125 478.601562 367.625 478.910156 367.625 C 478.910156 367.625 478.984375 367.625 478.984375 367.625 C 478.984375 367.625 479.0625 367.625 479.0625 367.550781 C 479.0625 367.550781 479.0625 367.550781 478.984375 367.625 C 479.140625 367.625 479.292969 367.625 479.449219 367.625 C 480.527344 367.625 481.679688 367.625 482.757812 367.703125 C 483.144531 367.703125 483.605469 367.703125 483.992188 367.703125 C 484.066406 367.703125 484.066406 367.703125 484.066406 367.703125 C 484.992188 368.085938 486.070312 368.242188 486.996094 368.550781 C 487.457031 368.703125 487.996094 368.855469 488.457031 368.933594 C 488.613281 369.011719 488.765625 369.011719 488.996094 369.089844 C 488.996094 369.089844 489.074219 369.089844 489.074219 369.089844 C 489.226562 369.164062 489.535156 369.320312 489.613281 369.394531 C 490.074219 369.703125 490.613281 369.933594 491.074219 370.242188 C 491.921875 370.703125 492.769531 371.320312 493.695312 371.703125 C 493.695312 371.703125 493.695312 371.703125 493.769531 371.703125 C 494.078125 372.011719 494.386719 372.320312 494.695312 372.550781 C 495.542969 373.320312 496.3125 374.089844 497.160156 374.859375 C 497.3125 375.015625 497.542969 375.320312 497.773438 375.398438 C 497.851562 375.476562 497.851562 375.550781 497.929688 375.628906 C 498.929688 377.015625 499.929688 378.398438 500.933594 379.785156 C 502.011719 381.246094 503.242188 382.710938 504.242188 384.171875 C 505.167969 385.558594 505.785156 387.171875 506.476562 388.636719 C 507.171875 390.019531 507.710938 391.40625 508.324219 392.789062 C 508.480469 393.253906 508.710938 393.636719 508.863281 394.097656 C 509.019531 394.40625 509.09375 394.945312 509.019531 394.328125 C 509.171875 395.175781 509.558594 395.945312 509.789062 396.714844 C 510.710938 399.714844 511.558594 402.640625 512.253906 405.71875 C 512.5625 407.027344 512.867188 408.335938 513.175781 409.722656 C 513.175781 409.875 513.101562 410.027344 513.101562 410.105469 C 512.867188 411.105469 513.714844 411.722656 514.484375 411.796875 C 514.792969 411.796875 515.179688 411.722656 515.488281 411.566406 C 515.796875 411.875 516.257812 411.953125 516.640625 411.875 C 517.257812 412.03125 517.953125 411.722656 518.105469 410.953125 C 519.492188 404.71875 521.109375 398.714844 523.417969 392.714844 C 523.804688 391.714844 524.1875 390.710938 524.574219 389.710938 C 524.574219 389.636719 524.652344 389.558594 524.652344 389.480469 C 524.804688 389.328125 524.957031 388.941406 525.035156 388.710938 C 525.804688 387.25 526.574219 385.863281 527.421875 384.402344 C 527.886719 383.554688 528.347656 382.710938 528.886719 381.863281 C 529.195312 381.402344 529.425781 380.9375 529.734375 380.402344 C 529.886719 380.167969 530.117188 379.863281 530.195312 379.632812 C 530.273438 379.554688 530.273438 379.476562 530.347656 379.476562 C 530.65625 379.09375 530.964844 378.785156 531.351562 378.398438 C 532.121094 377.628906 532.8125 376.785156 533.582031 376.015625 C 534.660156 374.859375 535.816406 373.78125 536.894531 372.628906 C 537.203125 372.320312 537.433594 372.089844 537.742188 371.78125 C 537.742188 371.78125 537.820312 371.703125 537.820312 371.703125 C 538.667969 371.242188 539.511719 370.703125 540.359375 370.164062 C 540.824219 369.933594 541.207031 369.625 541.667969 369.394531 C 541.824219 369.320312 542.132812 369.164062 542.363281 369.011719 C 542.515625 369.011719 542.59375 368.933594 542.671875 368.933594 C 543.210938 368.78125 543.671875 368.625 544.210938 368.472656 C 545.210938 368.164062 546.214844 367.933594 547.136719 367.550781 C 547.214844 367.550781 547.214844 367.550781 547.214844 367.550781 C 547.597656 367.550781 547.984375 367.550781 548.371094 367.550781 C 549.523438 367.550781 550.601562 367.550781 551.757812 367.472656 C 551.910156 367.472656 552.21875 367.472656 552.375 367.472656 C 552.375 367.472656 552.449219 367.472656 552.449219 367.472656 C 553.453125 367.933594 554.375 368.394531 555.378906 368.855469 C 555.992188 369.164062 556.839844 369.78125 557.53125 369.933594 C 557.609375 370.011719 557.609375 370.011719 557.6875 370.011719 C 558.070312 370.320312 558.378906 370.703125 558.765625 371.011719 C 559.613281 371.78125 560.460938 372.550781 561.304688 373.320312 C 561.382812 373.398438 561.691406 373.78125 561.84375 373.859375 C 561.921875 373.9375 561.921875 374.011719 562 374.089844 C 562.460938 375.015625 562.921875 375.9375 563.386719 376.859375 C 563.695312 377.476562 564 378.476562 564.464844 379.015625 C 564.539062 379.398438 564.539062 379.863281 564.617188 380.246094 C 564.847656 381.785156 565.15625 383.324219 565.15625 384.789062 C 565.15625 385.863281 565.15625 386.863281 565.15625 387.941406 C 565.15625 388.558594 565.003906 389.480469 565.15625 390.097656 C 565.15625 389.867188 565.3125 389.867188 565.15625 390.097656 C 565.15625 390.097656 565.15625 390.175781 565.15625 390.175781 C 564.847656 390.480469 564.847656 390.480469 564.847656 390.558594 Z M 473.441406 369.703125 C 473.519531 369.625 473.519531 369.625 473.441406 369.703125 Z M 524.417969 389.636719 C 524.417969 389.558594 524.496094 389.558594 524.496094 389.480469 C 524.574219 389.25 524.496094 389.558594 524.417969 389.636719 Z M 509.25 388.941406 C 509.25 389.019531 509.25 389.019531 509.328125 389.019531 C 509.328125 389.019531 509.328125 389.019531 509.328125 389.097656 C 509.328125 389.097656 509.328125 389.171875 509.328125 389.171875 C 509.019531 388.480469 508.710938 387.789062 508.324219 387.097656 C 508.171875 386.710938 508.015625 386.402344 507.785156 386.019531 C 508.015625 386.558594 508.324219 387.171875 508.554688 387.710938 C 508.863281 388.171875 509.09375 388.558594 509.25 388.941406 Z M 501.316406 374.246094 C 501.316406 374.320312 501.316406 374.320312 501.316406 374.246094 C 501.546875 374.550781 501.394531 374.476562 501.316406 374.246094 Z M 469.050781 368.78125 C 469.359375 368.550781 469.667969 368.320312 470.050781 368.011719 C 470.898438 367.394531 471.746094 366.703125 472.671875 366.085938 C 472.746094 366.011719 472.980469 365.933594 472.980469 365.855469 C 473.285156 365.777344 473.519531 365.625 473.824219 365.546875 C 474.902344 365.164062 475.980469 364.703125 477.136719 364.316406 C 477.367188 364.238281 477.832031 364.164062 478.0625 364.007812 C 478.136719 364.007812 478.214844 364.007812 478.292969 364.007812 C 479.371094 364.007812 480.527344 363.933594 481.605469 363.933594 C 483.222656 363.855469 484.683594 364.007812 486.300781 364.238281 C 487.070312 364.316406 488.074219 364.546875 488.84375 364.546875 C 489.226562 364.777344 489.691406 365.007812 490.152344 365.242188 C 491.539062 365.933594 493 366.546875 494.308594 367.550781 C 495.234375 368.242188 496.15625 368.933594 497.160156 369.625 C 497.46875 369.859375 497.699219 370.089844 498.007812 370.242188 C 498.007812 370.242188 498.082031 370.320312 498.082031 370.394531 C 498.699219 371.242188 499.46875 372.089844 500.164062 372.859375 C 500.46875 373.242188 500.777344 373.628906 501.085938 374.011719 C 501.164062 374.089844 501.242188 374.246094 501.394531 374.320312 C 501.703125 375.089844 502.320312 375.785156 502.703125 376.398438 C 503.242188 377.246094 503.78125 378.09375 504.320312 378.9375 C 505.246094 380.476562 506.09375 382.171875 506.863281 383.785156 C 506.707031 383.480469 506.476562 383.09375 506.246094 382.785156 C 504.089844 379.863281 501.933594 376.9375 499.777344 374.011719 C 498.777344 372.628906 497.234375 371.550781 496.003906 370.320312 C 494.773438 369.164062 493.308594 368.472656 491.921875 367.703125 C 491.230469 367.316406 490.535156 366.855469 489.84375 366.546875 C 489.152344 366.316406 488.378906 366.085938 487.609375 365.933594 C 485.992188 365.472656 484.53125 365.007812 482.835938 364.933594 C 481.679688 364.933594 480.527344 364.933594 479.371094 364.855469 C 478.832031 364.855469 478.371094 364.855469 477.832031 365.007812 C 475.980469 365.703125 474.210938 366.472656 472.441406 367.242188 C 471.824219 367.472656 471.4375 367.933594 470.898438 368.394531 C 470.050781 369.242188 469.207031 370.011719 468.433594 370.859375 C 468.128906 371.164062 467.820312 371.472656 467.511719 371.78125 C 467.589844 371.628906 467.664062 371.472656 467.742188 371.320312 C 468.050781 370.628906 468.667969 369.703125 469.050781 368.78125 Z M 477.367188 425.421875 C 476.519531 423.957031 475.828125 422.496094 475.058594 421.035156 C 474.363281 419.726562 473.363281 418.492188 472.515625 417.261719 C 472.132812 416.722656 471.667969 416.183594 471.363281 415.648438 C 470.976562 414.953125 470.667969 414.183594 470.359375 413.492188 C 469.898438 412.566406 469.511719 411.644531 469.050781 410.796875 C 468.898438 410.414062 468.742188 409.953125 468.589844 409.566406 C 468.050781 408.105469 467.433594 406.644531 466.894531 405.179688 C 466.511719 404.101562 466.203125 403.101562 465.816406 402.023438 C 465.664062 401.640625 465.585938 401.253906 465.433594 400.871094 C 465.433594 400.792969 465.355469 400.792969 465.355469 400.71875 C 465.277344 398.945312 464.96875 397.175781 464.96875 395.40625 C 464.96875 395.175781 464.96875 394.867188 464.96875 394.636719 C 465.199219 395.484375 465.355469 396.40625 465.664062 397.253906 C 466.125 398.945312 466.664062 400.484375 467.355469 402.023438 C 467.820312 403.027344 468.28125 404.101562 468.742188 405.105469 C 468.742188 405.179688 468.820312 405.257812 468.820312 405.335938 C 468.972656 405.71875 469.128906 406.027344 469.28125 406.410156 C 470.515625 409.566406 471.976562 412.566406 473.441406 415.648438 C 474.828125 418.726562 476.214844 421.804688 477.832031 424.804688 C 479.449219 427.882812 481.140625 430.960938 482.757812 433.960938 C 482.757812 434.039062 482.835938 434.117188 482.835938 434.117188 C 480.988281 431.113281 479.0625 428.34375 477.367188 425.421875 Z M 506.632812 475.058594 C 505.398438 472.441406 503.9375 469.824219 502.394531 467.359375 C 500.777344 464.667969 498.929688 461.972656 497.390625 459.203125 C 496.542969 457.585938 495.773438 455.972656 494.847656 454.355469 C 494 452.894531 493.15625 451.429688 492.230469 449.96875 C 491.613281 448.890625 491 447.8125 490.382812 446.738281 C 490.460938 446.890625 490.613281 446.96875 490.691406 447.121094 C 491.691406 448.429688 492.460938 449.96875 493.308594 451.429688 C 494.925781 454.203125 496.851562 456.816406 498.546875 459.511719 C 500.316406 462.28125 502.242188 464.898438 503.9375 467.667969 C 505.628906 470.59375 507.324219 473.515625 508.789062 476.519531 C 509.480469 477.980469 510.171875 479.441406 510.789062 480.828125 C 510.789062 481.058594 510.945312 481.367188 511.097656 481.519531 C 510.867188 481.75 510.636719 482.058594 510.328125 482.289062 C 509.710938 481.289062 509.171875 480.367188 508.554688 479.367188 C 507.863281 478.058594 507.324219 476.519531 506.632812 475.058594 Z M 554.53125 421.648438 C 552.988281 424.574219 551.527344 427.574219 549.832031 430.421875 C 548.214844 433.269531 546.597656 436.195312 544.75 438.886719 C 543.75 440.347656 542.671875 441.734375 541.824219 443.273438 C 541.054688 444.8125 540.359375 446.507812 539.359375 447.890625 C 538.28125 449.277344 537.203125 450.660156 536.203125 451.96875 C 535.507812 452.894531 534.816406 453.816406 534.121094 454.742188 C 533.890625 455.046875 533.582031 455.433594 533.351562 455.742188 C 533.351562 455.742188 533.277344 455.816406 533.199219 455.894531 C 530.886719 458.511719 528.808594 461.359375 526.574219 463.976562 C 526.191406 464.4375 525.804688 464.898438 525.34375 465.359375 C 526.960938 462.820312 528.5 460.28125 530.273438 457.820312 C 532.199219 455.277344 533.890625 452.664062 535.664062 449.96875 C 537.589844 447.042969 539.511719 444.199219 541.363281 441.351562 C 543.210938 438.503906 544.902344 435.5 546.597656 432.5 C 548.136719 429.730469 549.832031 427.113281 551.679688 424.574219 C 552.605469 423.265625 553.375 422.035156 554.144531 420.570312 C 554.835938 419.261719 555.53125 418.03125 556.378906 416.800781 C 557.457031 415.261719 558.535156 413.722656 559.457031 412.105469 C 559.382812 412.183594 559.382812 412.335938 559.304688 412.414062 C 557.839844 415.570312 556.148438 418.570312 554.53125 421.648438 Z M 564.234375 402.023438 C 564.234375 402.101562 564.15625 402.257812 564.15625 402.410156 C 563.925781 402.871094 563.617188 403.332031 563.386719 403.796875 C 563.460938 403.488281 563.617188 403.179688 563.695312 402.871094 C 564.15625 401.640625 564.617188 400.410156 565.078125 399.179688 C 564.925781 399.640625 564.773438 400.179688 564.617188 400.640625 C 564.539062 401.101562 564.386719 401.5625 564.234375 402.023438 Z M 564.234375 402.023438 " fill-opacity="1" fill-rule="nonzero"/></g></svg>